<svg xmlns="http://www.w3.org/2000/svg" viewBox="0 0 64 64"><g id="Layer_43" data-name="Layer 43"><path d="M42.61,56.84C25.25,64.56,4.71,51,5,32a27,27,0,1,1,53.73,3.86A1,1,0,0,0,59.57,37a1,1,0,0,0,1.14-.85C63.32,18.88,49.48,2.86,32,3A29,29,0,0,0,3,32C2.69,52.44,24.74,67,43.39,58.68A1,1,0,0,0,42.61,56.84Z"/><path d="M33,8a1,1,0,0,0-2,0v3a1,1,0,0,0,2,0Z"/><path d="M48.26,14.32l-2.12,2.12a1,1,0,0,0,1.42,1.42l2.12-2.12A1,1,0,0,0,48.26,14.32Z"/><path d="M53,31a1,1,0,0,0,0,2h3a1,1,0,0,0,0-2Z"/><path d="M32,52a1,1,0,0,0-1,1v3a1,1,0,0,0,2,0V53A1,1,0,0,0,32,52Z"/><path d="M16.44,46.14l-2.12,2.12a1,1,0,0,0,1.42,1.42l2.12-2.12A1,1,0,0,0,16.44,46.14Z"/><path d="M8,31a1,1,0,0,0,0,2h3a1,1,0,0,0,0-2Z"/><path d="M17.86,16.44l-2.12-2.12a1,1,0,0,0-1.42,1.42l2.12,2.12A1,1,0,0,0,17.86,16.44Z"/><path d="M33,16a1,1,0,0,0-2,0V31H22a1,1,0,0,0,0,2H32a1,1,0,0,0,1-1Z"/><path d="M59.47,44.51,58,44.36c1.47-1.09,2.37-1.65,1.08-3.45-.7-1.24-2.15-.43-3.1,0,.74-1.66,1.19-2.57-.79-3.48-1.24-.74-2.09.7-2.7,1.55-.18-1.82-.21-2.88-2.41-2.69-1.49,0-1.46,1.7-1.59,2.76l-.53.17c-.69-.8-1.66-2.25-2.87-1.4-1.92,1.08-1.35,2-.5,3.58-1.71-.65-2.67-1.08-3.46,1-.65,1.31.81,2,1.71,2.6-1.05.19-2.68.28-2.59,1.74-.07,2.19,1,2.16,2.79,2.28-1.42,1.13-2.24,1.73-.91,3.45.79,1.24,2.16.35,3.12-.13-.38,1-1.14,2.45.17,3.11,1.86,1.18,2.38.26,3.37-1.27.17,1,.22,2.64,1.64,2.62,2.24.1,2.24-.88,2.35-2.78,1.12,1.45,1.7,2.33,3.47,1,1.25-.77.38-2.16-.08-3.12,1,.4,2.43,1.18,3.12-.11,1.23-1.85.29-2.38-1.23-3.39,1.06-.15,2.71-.17,2.68-1.64C60.82,45.77,60.61,44.62,59.47,44.51Zm-7-5.5ZM52.8,53.9Zm3.35-2.11Zm1.6-4.9a1.47,1.47,0,0,0-.64,2.6l1.23.89L58,51c-.9-.33-2.17-1.15-3-.17s0,2.09.37,3l-.57.35c-.64-.73-1.31-2.06-2.52-1.62s-1,1.81-1.13,2.74l-.67,0c-.19-1-.12-2.45-1.4-2.66s-1.77,1.07-2.33,1.83l-.59-.31c.3-.91,1.1-2.2.11-3s-2.09.06-2.94.44L43,51c.71-.64,2-1.36,1.58-2.54s-1.82-1-2.77-1.09l0-.67c1-.21,2.44-.17,2.63-1.44s-1.11-1.77-1.87-2.3l.29-.61c.92.29,2.21,1.06,3,.06s-.08-2.08-.48-2.93l.56-.38c.92,1.06,1.49,2.09,3.06,1.38,1.19-.26,1.08-1.77,1.23-2.7h.67c.15,1,0,2.44,1.28,2.71s1.82-1,2.41-1.73l.58.33c-.34.9-1.18,2.14-.23,3s2.08.05,3-.3l.34.57c-.74.63-2.09,1.27-1.67,2.5s1.79,1,2.72,1.18l0,.67Zm.19-2.54Z"/><path d="M50.5,41.26c-6.93.22-6.93,10.27,0,10.49C57.43,51.53,57.43,41.48,50.5,41.26Zm0,9c-4.94-.13-4.93-7.36,0-7.49A3.75,3.75,0,0,1,50.5,50.25Z"/></g></svg>